<svg xmlns="http://www.w3.org/2000/svg" viewBox="0 0 123.75 149.2"><defs><style>.cls-1{fill:#ddcf6a;}.cls-2{fill:none;stroke:#5489ba;stroke-linecap:round;stroke-linejoin:round;stroke-width:5.2px;}</style></defs><title>ports</title><g id="Layer_2" data-name="Layer 2"><g id="Layer_1-2" data-name="Layer 1"><circle class="cls-1" cx="95" cy="34.98" r="26.63"/><polygon class="cls-2" points="45.4 2.6 19.2 76.91 45.4 76.91 45.4 2.6"/><polygon class="cls-2" points="54.92 2.94 54.92 76.91 106.63 76.91 54.92 2.94"/><polygon class="cls-2" points="109.77 102.42 12.16 102.42 2.6 85.97 119.33 85.97 109.77 102.42"/><line class="cls-2" x1="29.79" y1="112.72" x2="121.15" y2="112.72"/><line class="cls-2" x1="3.37" y1="112.72" x2="19.4" y2="112.72"/><line class="cls-2" x1="68.76" y1="123.22" x2="94.74" y2="123.22"/><line class="cls-2" x1="37.58" y1="134.91" x2="29.79" y2="134.91"/><line class="cls-2" x1="19.4" y1="123.22" x2="59.67" y2="123.22"/><line class="cls-2" x1="45.38" y1="146.6" x2="73.95" y2="146.6"/><line class="cls-2" x1="105.13" y1="123.22" x2="111.62" y2="123.22"/><line class="cls-2" x1="47.97" y1="134.91" x2="97.33" y2="134.91"/></g></g></svg>